<svg width="30" height="31" viewBox="0 0 30 31" fill="none" xmlns="http://www.w3.org/2000/svg">
<path opacity="0.25" d="M14.684 25.888C20.3283 25.888 24.904 21.3123 24.904 15.668C24.904 10.0236 20.3283 5.448 14.684 5.448C9.03964 5.448 4.46399 10.0236 4.46399 15.668C4.46399 21.3123 9.03964 25.888 14.684 25.888Z" fill="#5E81F4"/>
<path opacity="0.5" d="M6.292 13.772C3.74885 13.7711 1.45629 12.2393 0.482135 9.89014C-0.492023 7.54096 0.0437865 4.83633 1.84 3.03598C4.29692 0.580291 8.27908 0.580291 10.736 3.03598C11.9163 4.21535 12.5794 5.81546 12.5794 7.48398C12.5794 9.1525 11.9163 10.7526 10.736 11.932C9.56032 13.1149 7.95979 13.7776 6.292 13.772Z" fill="#5E81F4"/>
<path opacity="0.5" d="M23.308 30.3959C20.3057 30.397 17.7208 28.2767 17.1348 25.3321C16.5488 22.3875 18.1248 19.4391 20.8988 18.2905C23.6728 17.142 26.8718 18.1133 28.5388 20.6104C30.2058 23.1074 29.8764 26.4343 27.752 28.5559C26.5753 29.7373 24.9754 30.3997 23.308 30.3959V30.3959Z" fill="#5E81F4"/>
<path d="M6.46001 30.328C3.9154 30.3303 1.61988 28.7997 0.643672 26.4498C-0.332538 24.0999 0.202762 21.3934 2.00001 19.592C2.27476 19.3241 2.57332 19.0818 2.89201 18.868L3.20001 18.672C3.41601 18.544 3.64001 18.428 3.87601 18.316C3.99601 18.264 4.11601 18.208 4.24801 18.16C4.49359 18.0703 4.7448 17.9968 5.00001 17.94L5.16001 17.896C5.18745 17.8861 5.21551 17.8781 5.24401 17.872L6.66801 17.768C6.85201 17.768 7.06801 17.804 7.26401 17.832H7.30801H7.49601H7.55601H7.61601H8.00001C10.4617 17.8091 12.8116 16.8006 14.524 15.032C16.2459 13.2768 17.1888 10.9023 17.14 8.44398V8.37598V8.30798C17.1259 8.23141 17.1179 8.15383 17.116 8.07598V7.88398L17.064 7.69998C17.064 7.58798 17.036 7.46798 17.032 7.35198L17.128 6.03198V5.99998V5.97598C17.128 5.94398 17.188 5.76798 17.188 5.76798C17.2488 5.4968 17.3263 5.22962 17.42 4.96798C17.464 4.84798 17.52 4.72798 17.576 4.60798C17.681 4.37112 17.8013 4.1413 17.936 3.91998V3.88398C17.992 3.79198 18.044 3.69998 18.108 3.61198C18.3181 3.2953 18.5579 2.99931 18.824 2.72798C21.285 0.262583 25.2786 0.259001 27.744 2.71998C30.2094 5.18096 30.213 9.17458 27.752 11.64C27.4788 11.9056 27.1815 12.1453 26.864 12.356C26.768 12.424 26.684 12.472 26.6 12.524L26.552 12.552C26.32 12.688 26.096 12.808 25.88 12.908C25.752 12.964 25.636 13.02 25.516 13.064C25.2636 13.1556 25.0057 13.2318 24.744 13.292C24.6886 13.3037 24.6339 13.3184 24.58 13.336L24.48 13.364L23.084 13.46C22.908 13.46 22.72 13.428 22.524 13.404H22.436H22.256H22.14H22.076H21.764C16.6623 13.4786 12.5777 17.6579 12.62 22.76V22.828V22.9C12.6308 22.9702 12.6375 23.041 12.64 23.112C12.64 23.188 12.64 23.26 12.66 23.332C12.68 23.404 12.66 23.468 12.684 23.54C12.698 23.6434 12.706 23.7476 12.708 23.852L12.608 25.224C12.6006 25.2604 12.5912 25.2965 12.58 25.332L12.544 25.456C12.4868 25.7276 12.4106 25.995 12.316 26.256C12.272 26.376 12.212 26.5 12.156 26.624C12.0543 26.855 11.9409 27.0806 11.816 27.3C11.752 27.412 11.692 27.512 11.624 27.608C11.4121 27.928 11.1696 28.2267 10.9 28.5C9.72429 29.6804 8.12605 30.3427 6.46001 30.34V30.328Z" fill="#5E81F4"/>
</svg>
